<svg width="24" height="24" viewBox="0 0 24 24" fill="none" xmlns="http://www.w3.org/2000/svg">
<path d="M12.0008 20.7251C9.75078 18.7084 8.05078 16.8251 6.90078 15.0751C5.75078 13.325 5.17578 11.7417 5.17578 10.325C5.17578 8.32505 5.82995 6.65422 7.13828 5.31255C8.44661 3.97088 10.0674 3.30005 12.0008 3.30005H12.5008V4.00005C12.4174 4.00005 12.3362 3.99588 12.257 3.98755C12.1779 3.97922 12.0924 3.97505 12.0008 3.97505C10.2341 3.97505 8.77161 4.57505 7.61328 5.77505C6.45495 6.97505 5.87578 8.49172 5.87578 10.325C5.87578 11.575 6.43828 13.0709 7.56328 14.8126C8.68828 16.5542 10.1674 18.2084 12.0008 19.7751C13.8008 18.2417 15.2591 16.6251 16.3758 14.9251C17.4924 13.225 18.0758 11.75 18.1258 10.5H18.8258C18.7758 11.9 18.1799 13.4584 17.0383 15.1751C15.8966 16.8917 14.2174 18.7417 12.0008 20.7251ZM12.0053 11.65C12.4189 11.65 12.7716 11.5027 13.0633 11.208C13.3549 10.9135 13.5008 10.5594 13.5008 10.1455C13.5008 9.73188 13.3534 9.37922 13.0588 9.08755C12.7643 8.79588 12.4101 8.65005 11.9963 8.65005C11.5826 8.65005 11.2299 8.79738 10.9383 9.09205C10.6466 9.38655 10.5008 9.74072 10.5008 10.1545C10.5008 10.5682 10.6481 10.9209 10.9428 11.2125C11.2373 11.5042 11.5914 11.65 12.0053 11.65ZM18.0008 8.00005H18.7008V5.00005H21.7008V4.30005H18.7008V1.30005H18.0008V4.30005H15.0008V5.00005H18.0008V8.00005Z" fill="black"/>
</svg>
