<svg width="24" height="24" viewBox="0 0 24 24" fill="none" xmlns="http://www.w3.org/2000/svg">
<path d="M15.7008 19.7L15.3008 14.325L14.1008 13.525V9.72495C14.1008 9.28495 14.2574 8.90828 14.5708 8.59495C14.8841 8.28162 15.2608 8.12495 15.7008 8.12495H16.1008L16.9008 9.72495L17.7008 8.12495H18.1008C18.5408 8.12495 18.9174 8.28162 19.2308 8.59495C19.5441 8.90828 19.7008 9.28495 19.7008 9.72495V13.525L18.5008 14.325L18.1008 19.7H15.7008ZM16.9008 7.32495C16.4508 7.32495 16.0716 7.17078 15.7633 6.86245C15.4549 6.55412 15.3008 6.17495 15.3008 5.72495H18.5008C18.5008 6.17495 18.3466 6.55412 18.0383 6.86245C17.7299 7.17078 17.3508 7.32495 16.9008 7.32495ZM15.3008 5.02495V4.12495C15.3008 3.89828 15.3777 3.70828 15.5315 3.55495C15.6855 3.40162 15.8763 3.32495 16.1038 3.32495H17.7095C17.937 3.32495 18.1258 3.40162 18.2758 3.55495C18.4258 3.70828 18.5008 3.89828 18.5008 4.12495V5.02495H15.3008ZM10.0258 19.7C9.92661 19.7 9.84345 19.6665 9.77628 19.5995C9.70928 19.5323 9.67578 19.4491 9.67578 19.35V17.7H3.30078V17H9.67578V12.2H3.30078V11.5H9.37578L7.77578 6.99995H3.30078V6.29995H7.97578C8.07761 6.29995 8.17003 6.33203 8.25303 6.3962C8.33603 6.46037 8.39361 6.54495 8.42578 6.64995L10.3758 12.2V19.35C10.3758 19.4491 10.3423 19.5323 10.2753 19.5995C10.2081 19.6665 10.1249 19.7 10.0258 19.7ZM7.28178 15.6C7.56111 15.6 7.79661 15.5021 7.98828 15.3065C8.17995 15.111 8.27578 14.8735 8.27578 14.594C8.27578 14.3146 8.17795 14.0791 7.98228 13.8875C7.78678 13.6958 7.54928 13.6 7.26978 13.6C6.99045 13.6 6.75495 13.6978 6.56328 13.8935C6.37161 14.089 6.27578 14.3265 6.27578 14.606C6.27578 14.8853 6.37361 15.1208 6.56928 15.3125C6.76478 15.5041 7.00228 15.6 7.28178 15.6Z" fill="black"/>
</svg>
