<svg width="24" height="24" viewBox="0 0 24 24" fill="none" xmlns="http://www.w3.org/2000/svg">
<path d="M7.80078 20.7V19.7C7.38828 19.7 7.0352 19.5531 6.74153 19.2592C6.4477 18.9656 6.30078 18.6125 6.30078 18.2V8.79998C6.30078 8.38748 6.4477 8.03431 6.74153 7.74048C7.0352 7.44681 7.38828 7.29998 7.80078 7.29998H10.1758V5.04998C10.1758 4.86664 10.2466 4.70414 10.3883 4.56248C10.5299 4.42081 10.6924 4.34998 10.8758 4.34998H13.1258C13.3091 4.34998 13.4716 4.42081 13.6133 4.56248C13.7549 4.70414 13.8258 4.86664 13.8258 5.04998V7.29998H16.2008C16.6133 7.29998 16.9664 7.44681 17.2603 7.74048C17.5539 8.03431 17.7008 8.38748 17.7008 8.79998V18.2C17.7008 18.6125 17.5539 18.9656 17.2603 19.2592C16.9664 19.5531 16.6133 19.7 16.2008 19.7V20.7H15.5008V19.7H8.50078V20.7H7.80078ZM10.8758 7.29998H13.1258V5.04998H10.8758V7.29998ZM12.0008 12.5C12.8841 12.5 13.7466 12.3875 14.5883 12.1625C15.4299 11.9375 16.2341 11.6 17.0008 11.15V8.79998C17.0008 8.56664 16.9258 8.37498 16.7758 8.22498C16.6258 8.07498 16.4341 7.99998 16.2008 7.99998H7.80078C7.56745 7.99998 7.37578 8.07498 7.22578 8.22498C7.07578 8.37498 7.00078 8.56664 7.00078 8.79998V11.15C7.76745 11.6 8.57161 11.9375 9.41328 12.1625C10.2549 12.3875 11.1174 12.5 12.0008 12.5ZM11.6508 14.2V13.2C10.8341 13.15 10.0383 13.025 9.26328 12.825C8.48828 12.625 7.73411 12.3333 7.00078 11.95V18.2C7.00078 18.4333 7.07578 18.625 7.22578 18.775C7.37578 18.925 7.56745 19 7.80078 19H16.2008C16.4341 19 16.6258 18.925 16.7758 18.775C16.9258 18.625 17.0008 18.4333 17.0008 18.2V11.95C16.2674 12.3333 15.5133 12.625 14.7383 12.825C13.9633 13.025 13.1674 13.15 12.3508 13.2V14.2H11.6508Z" fill="black"/>
</svg>
