<svg width="32" height="32" viewBox="0 0 32 32" fill="none" xmlns="http://www.w3.org/2000/svg">
<rect width="32" height="32" fill="black"/>
<path d="M25.1357 11.5734V14.7959C25.1357 14.8888 25.1576 14.9653 25.2013 15.0255C25.2451 15.0801 25.2997 15.1184 25.3653 15.1403C25.4309 15.1621 25.4993 15.1676 25.5703 15.1567C25.6468 15.1457 25.7179 15.1157 25.7835 15.0665C25.7398 15.1758 25.6796 15.2742 25.6031 15.3616C25.5375 15.4382 25.4473 15.5038 25.3325 15.5584C25.2232 15.6131 25.0893 15.6322 24.9307 15.6158C24.8378 15.6104 24.7449 15.5967 24.652 15.5748C24.5645 15.5475 24.4852 15.501 24.4142 15.4354C24.3431 15.3698 24.283 15.2769 24.2338 15.1567C24.19 15.0309 24.1682 14.8669 24.1682 14.6647V11.5734H23.709V11.4586H24.1682C24.2884 11.4531 24.4032 11.4149 24.5126 11.3438C24.6055 11.2837 24.7011 11.1907 24.7995 11.065C24.9034 10.9338 24.9881 10.7452 25.0537 10.4992H25.1357V11.4586H25.7835V11.5734H25.1357ZM27.3841 15.1813C27.3841 15.3015 27.3404 15.4026 27.2529 15.4846C27.1709 15.5666 27.0698 15.6076 26.9495 15.6076C26.8293 15.6076 26.7281 15.5666 26.6461 15.4846C26.5641 15.4026 26.5231 15.3015 26.5231 15.1813C26.5231 15.061 26.5641 14.9599 26.6461 14.8779C26.7281 14.7904 26.8293 14.7467 26.9495 14.7467C27.0698 14.7467 27.1709 14.7904 27.2529 14.8779C27.3404 14.9599 27.3841 15.061 27.3841 15.1813Z" fill="white"/>
<path d="M17.2611 14.4842C18.0038 14.6472 18.7194 14.8465 19.4078 15.082C20.1143 15.2994 20.7393 15.5983 21.2828 15.9788C21.8263 16.3592 22.2611 16.8393 22.5871 17.419C22.9132 17.9987 23.0763 18.7233 23.0763 19.5929C23.0763 20.553 22.8679 21.4136 22.4513 22.1744C22.0346 22.9353 21.4549 23.5784 20.7121 24.1038C19.9875 24.6291 19.127 25.0367 18.1306 25.3266C17.1342 25.5983 16.0563 25.7342 14.8969 25.7342C14.1361 25.7342 13.3661 25.698 12.5871 25.6255C11.8081 25.5349 11.0563 25.4262 10.3317 25.2994C9.60706 25.1726 8.93677 25.0277 8.32082 24.8646C7.70488 24.7016 7.17952 24.5386 6.74474 24.3755L7.15234 20.4353C7.3335 21.2867 7.70488 22.0204 8.26648 22.6364C8.84619 23.2523 9.50742 23.7596 10.2502 24.1581C10.9929 24.5567 11.7719 24.8556 12.5871 25.0549C13.4205 25.2541 14.1904 25.3538 14.8969 25.3538C15.6578 25.3538 16.3643 25.2541 17.0165 25.0549C17.6687 24.8556 18.2303 24.5657 18.7013 24.1853C19.1904 23.8049 19.5527 23.3338 19.7882 22.7723C20.0419 22.1925 20.1415 21.5223 20.0871 20.7614C20.0328 19.9643 19.7067 19.3665 19.1089 18.9679C18.5111 18.5512 17.7683 18.2342 16.8806 18.0168C15.9929 17.7813 15.0237 17.5911 13.973 17.4462C12.9223 17.2831 11.9078 17.0567 10.9295 16.7668C10.3317 16.5856 9.76104 16.3773 9.21757 16.1418C8.6922 15.9063 8.23024 15.6074 7.83169 15.2451C7.43314 14.8827 7.11611 14.448 6.88061 13.9407C6.6451 13.4335 6.52734 12.8085 6.52734 12.0657C6.52734 11.1418 6.74474 10.3356 7.17952 9.64723C7.6143 8.95883 8.21213 8.38817 8.973 7.93527C9.73387 7.46426 10.6216 7.12006 11.636 6.90266C12.6505 6.66716 13.7375 6.5494 14.8969 6.5494C16.3824 6.5494 17.7411 6.6581 18.973 6.87549C20.2049 7.09288 21.2466 7.34651 22.098 7.63636L21.5817 11.332C21.0563 9.86463 20.2049 8.76861 19.0274 8.04397C17.8679 7.30122 16.4911 6.92984 14.8969 6.92984C14.2629 6.92984 13.6288 7.0023 12.9947 7.14723C12.3607 7.27404 11.79 7.49143 11.2828 7.7994C10.7755 8.10738 10.3679 8.50593 10.06 8.99506C9.75199 9.48419 9.598 10.073 9.598 10.7614C9.598 11.4498 9.82445 11.9933 10.2773 12.3918C10.7302 12.7904 11.319 13.1164 12.0437 13.3701C12.7864 13.6056 13.6107 13.8048 14.5165 13.9679C15.4404 14.1309 16.3553 14.303 17.2611 14.4842Z" fill="white"/>
</svg>
