<svg width="217" height="47" viewBox="0 0 217 47" fill="none" xmlns="http://www.w3.org/2000/svg">
<g clip-path="url(#clip0_2197_312)">
<path d="M21.5585 22.1708C22.8193 22.4476 24.034 22.7858 25.2026 23.1856C26.4019 23.5546 27.4629 24.062 28.3854 24.7078C29.308 25.3536 30.046 26.1686 30.5996 27.1526C31.1531 28.1367 31.4299 29.3668 31.4299 30.8429C31.4299 32.4727 31.0762 33.9334 30.3689 35.225C29.6616 36.5166 28.6776 37.6083 27.4167 38.5001C26.1867 39.3919 24.7259 40.0839 23.0346 40.5759C21.3432 41.0372 19.5135 41.2678 17.5453 41.2678C16.2537 41.2678 14.9468 41.2063 13.6244 41.0833C12.3021 40.9295 11.0259 40.745 9.79582 40.5298C8.56574 40.3145 7.42791 40.0685 6.38234 39.7917C5.33677 39.5149 4.44496 39.2382 3.70692 38.9614L4.39884 32.2728C4.70636 33.7182 5.33677 34.9636 6.29009 36.0092C7.27415 37.0548 8.3966 37.9158 9.65744 38.5924C10.9183 39.2689 12.2406 39.7763 13.6244 40.1146C15.039 40.4529 16.346 40.622 17.5453 40.622C18.8369 40.622 20.0362 40.4529 21.1433 40.1146C22.2504 39.7763 23.2037 39.2843 24.0033 38.6385C24.8336 37.9927 25.4486 37.1932 25.8484 36.2398C26.2789 35.2558 26.448 34.118 26.3558 32.8264C26.2635 31.4733 25.71 30.4585 24.6952 29.7819C23.6804 29.0746 22.4195 28.5365 20.9127 28.1674C19.4058 27.7677 17.7606 27.4448 15.977 27.1987C14.1934 26.922 12.4712 26.5376 10.8106 26.0455C9.79582 25.738 8.82713 25.3844 7.90457 24.9846C7.01276 24.5848 6.22858 24.0774 5.55204 23.4624C4.87549 22.8473 4.33733 22.1093 3.93756 21.2482C3.53778 20.3872 3.33789 19.3262 3.33789 18.0654C3.33789 16.497 3.70692 15.1286 4.44496 13.96C5.18301 12.7914 6.19783 11.8227 7.48942 11.0539C8.781 10.2544 10.2879 9.67009 12.01 9.30106C13.7321 8.90128 15.5772 8.7014 17.5453 8.7014C20.067 8.7014 22.3734 8.88591 24.4645 9.25493C26.5557 9.62396 28.3239 10.0545 29.7693 10.5465L28.8928 16.8199C28.001 14.329 26.5557 12.4685 24.5568 11.2384C22.5887 9.97761 20.2515 9.34719 17.5453 9.34719C16.469 9.34719 15.3927 9.4702 14.3164 9.71621C13.24 9.93148 12.2714 10.3005 11.4103 10.8233C10.5492 11.3461 9.85732 12.0226 9.33454 12.8529C8.81175 13.6832 8.55036 14.6827 8.55036 15.8512C8.55036 17.0198 8.93476 17.9424 9.70356 18.6189C10.4724 19.2955 11.4718 19.849 12.7019 20.2795C13.9627 20.6793 15.3619 21.0176 16.8995 21.2944C18.4679 21.5711 20.0209 21.8633 21.5585 22.1708ZM43.3857 37.9927C43.3857 38.5155 43.5395 38.9922 43.847 39.4227C44.1852 39.8225 44.5696 40.1607 45.0002 40.4375C45.4615 40.7758 45.9996 41.0525 46.6147 41.2678H34.5752C35.1595 41.0525 35.6977 40.7758 36.1897 40.4375C36.5895 40.1607 36.9585 39.8225 37.2968 39.4227C37.6351 38.9922 37.8042 38.5155 37.8042 37.9927V12.2071C37.8042 11.6843 37.6351 11.2231 37.2968 10.8233C36.9585 10.3928 36.5895 10.0391 36.1897 9.76234C35.6977 9.42407 35.1595 9.1473 34.5752 8.93204H46.6147C45.9996 9.1473 45.4615 9.42407 45.0002 9.76234C44.5696 10.0391 44.1852 10.3928 43.847 10.8233C43.5395 11.2231 43.3857 11.6843 43.3857 12.2071V37.9927ZM62.5296 40.622C65.082 40.622 67.25 40.3606 69.0336 39.8378C70.848 39.3151 72.3395 38.7308 73.508 38.085C74.8611 37.3469 75.9836 36.5012 76.8754 35.5479V41.2678H50.7669C51.3512 41.0525 51.8894 40.7758 52.3814 40.4375C52.7812 40.1607 53.1502 39.8225 53.4885 39.4227C53.8267 38.9922 53.9959 38.5155 53.9959 37.9927V12.2071C53.9959 11.6843 53.8267 11.2231 53.4885 10.8233C53.1502 10.3928 52.7812 10.0391 52.3814 9.76234C51.8894 9.42407 51.3512 9.1473 50.7669 8.93204H75.3993V14.6519C74.3845 13.7294 73.139 12.8837 71.6629 12.1149C70.4021 11.4998 68.8337 10.9309 66.9579 10.4081C65.082 9.8546 62.8678 9.57783 60.3154 9.57783H59.5774V20.8792H68.1111L67.2346 26.1378C66.8041 25.2767 66.2506 24.5079 65.574 23.8314C64.9897 23.2471 64.2209 22.7243 63.2676 22.263C62.3451 21.771 61.2072 21.525 59.8541 21.525H59.5774V40.622H62.5296ZM115.886 37.9927C115.886 38.5155 116.04 38.9922 116.347 39.4227C116.686 39.8225 117.07 40.1607 117.501 40.4375C117.962 40.7758 118.5 41.0525 119.115 41.2678H107.122C107.706 41.0525 108.244 40.7758 108.736 40.4375C109.136 40.1607 109.505 39.8225 109.843 39.4227C110.182 38.9922 110.351 38.5155 110.351 37.9927V10.5004L100.479 33.4722L104.354 41.2678H98.2651L84.888 14.7442V37.9927C84.888 38.5155 85.0417 38.9922 85.3493 39.4227C85.6875 39.8225 86.0719 40.1607 86.5025 40.4375C86.9637 40.7758 87.5019 41.0525 88.1169 41.2678H81.0132C81.5975 41.0525 82.1357 40.7758 82.6277 40.4375C83.0275 40.1607 83.3965 39.8225 83.7348 39.4227C84.073 38.9922 84.2422 38.5155 84.2422 37.9927V13.4065L82.028 8.93204H88.3476L100.11 32.688L110.305 8.93204H110.996H119.115C118.5 9.1473 117.962 9.42407 117.501 9.76234C117.07 10.0391 116.686 10.3928 116.347 10.8233C116.04 11.2231 115.886 11.6843 115.886 12.2071V37.9927ZM136.065 8.93204C140.493 8.93204 143.86 9.79309 146.167 11.5152C148.473 13.2373 149.626 15.9743 149.626 19.726C149.626 23.4778 148.473 26.2147 146.167 27.9368C143.86 29.6589 140.493 30.52 136.065 30.52H132.051V37.9927C132.051 38.5155 132.205 38.9922 132.513 39.4227C132.851 39.8225 133.235 40.1607 133.666 40.4375C134.127 40.7758 134.665 41.0525 135.28 41.2678H123.287C123.871 41.0525 124.41 40.7758 124.902 40.4375C125.301 40.1607 125.67 39.8225 126.009 39.4227C126.347 38.9922 126.516 38.5155 126.516 37.9927V12.2071C126.516 11.6843 126.347 11.2231 126.009 10.8233C125.67 10.3928 125.301 10.0391 124.902 9.76234C124.41 9.42407 123.871 9.1473 123.287 8.93204H136.065ZM144.091 19.6337C144.091 17.8194 143.876 16.2818 143.445 15.0209C143.045 13.7294 142.446 12.6838 141.646 11.8842C140.877 11.0847 139.924 10.5004 138.786 10.1314C137.648 9.76234 136.341 9.57783 134.865 9.57783H132.051V29.8742H134.865C136.341 29.8742 137.648 29.6897 138.786 29.3206C139.924 28.9516 140.877 28.3673 141.646 27.5678C142.446 26.7682 143.045 25.738 143.445 24.4772C143.876 23.1856 144.091 21.6326 144.091 19.8183V19.726V19.6337ZM180.904 41.2678C179.243 41.4523 177.89 41.4062 176.844 41.1294C175.799 40.8219 174.968 40.376 174.353 39.7917C173.738 39.2074 173.277 38.5155 172.97 37.7159C172.662 36.8856 172.431 36.04 172.278 35.1789C172.124 34.2871 171.985 33.426 171.862 32.5957C171.739 31.7347 171.555 30.9659 171.309 30.2893C171.063 29.6128 170.694 29.0746 170.202 28.6748C169.71 28.2443 169.002 28.0291 168.08 28.0291H161.622V37.9927C161.622 38.5155 161.776 38.9922 162.083 39.4227C162.422 39.8225 162.806 40.1607 163.236 40.4375C163.698 40.7758 164.236 41.0525 164.851 41.2678H152.858C153.442 41.0525 153.98 40.7758 154.472 40.4375C154.872 40.1607 155.241 39.8225 155.579 39.4227C155.917 38.9922 156.087 38.5155 156.087 37.9927V12.2071C156.087 11.6843 155.917 11.2231 155.579 10.8233C155.241 10.3928 154.872 10.0391 154.472 9.76234C153.98 9.42407 153.442 9.1473 152.858 8.93204H164.851C169.249 8.93204 172.662 9.70084 175.091 11.2384C177.552 12.7453 178.782 15.1593 178.782 18.4805C178.782 21.0022 178.059 23.0626 176.614 24.6617C175.199 26.2301 173.139 27.2449 170.432 27.7062C171.909 27.7062 173.093 28.0291 173.984 28.6748C174.876 29.2899 175.583 30.0741 176.106 31.0274C176.629 31.9499 177.029 32.9801 177.306 34.118C177.582 35.225 177.859 36.2706 178.136 37.2547C178.413 38.208 178.751 39.0229 179.151 39.6995C179.55 40.376 180.135 40.7604 180.904 40.8527V41.2678ZM164.067 27.3833C166.988 27.3833 169.249 26.7221 170.848 25.3998C172.447 24.0774 173.246 21.8018 173.246 18.5728V18.4805V18.3883C173.246 15.1593 172.447 12.8837 170.848 11.5613C169.249 10.239 166.988 9.57783 164.067 9.57783H161.622V27.3833H164.067ZM196.804 40.622C199.356 40.622 201.524 40.3606 203.308 39.8378C205.122 39.3151 206.614 38.7308 207.782 38.085C209.135 37.3469 210.258 36.5012 211.149 35.5479V41.2678H185.041C185.625 41.0525 186.163 40.7758 186.655 40.4375C187.055 40.1607 187.424 39.8225 187.763 39.4227C188.101 38.9922 188.27 38.5155 188.27 37.9927V12.2071C188.27 11.6843 188.101 11.2231 187.763 10.8233C187.424 10.3928 187.055 10.0391 186.655 9.76234C186.163 9.42407 185.625 9.1473 185.041 8.93204H209.673V14.6519C208.659 13.7294 207.413 12.8837 205.937 12.1149C204.676 11.4998 203.108 10.9309 201.232 10.4081C199.356 9.8546 197.142 9.57783 194.59 9.57783H193.851V20.8792H202.385L201.509 26.1378C201.078 25.2767 200.525 24.5079 199.848 23.8314C199.264 23.2471 198.495 22.7243 197.542 22.263C196.619 21.771 195.481 21.525 194.128 21.525H193.851V40.622H196.804Z" fill="black"/>
</g>
<defs>
<clipPath id="clip0_2197_312">
<rect width="216" height="46" fill="white" transform="translate(0.337891 0.22168)"/>
</clipPath>
</defs>
</svg>
