<svg width="192" height="24" viewBox="0 0 192 24" fill="none" xmlns="http://www.w3.org/2000/svg">
<g clip-path="url(#clip0_2206_255)">
<path d="M136.971 8.27801V19.2004C136.971 19.5154 137.045 19.7748 137.193 19.9786C137.341 20.1639 137.526 20.2936 137.749 20.3677C137.971 20.4418 138.203 20.4603 138.444 20.4233C138.703 20.3862 138.944 20.2843 139.166 20.1176C139.018 20.4881 138.814 20.8216 138.555 21.1181C138.332 21.3775 138.027 21.5998 137.638 21.7851C137.267 21.9704 136.813 22.0352 136.276 21.9796C135.961 21.9611 135.646 21.9148 135.331 21.8407C135.034 21.748 134.766 21.5905 134.525 21.3682C134.284 21.1459 134.08 20.8309 133.913 20.4233C133.765 19.9971 133.691 19.4413 133.691 18.7557V8.27801H132.135V7.88892H133.691C134.099 7.87039 134.488 7.74069 134.858 7.49982C135.173 7.29601 135.498 6.98103 135.831 6.55488C136.183 6.11021 136.47 5.47098 136.693 4.63721H136.971V7.88892H139.166V8.27801H136.971ZM149.747 8.00009C151.545 8.25948 152.953 8.99135 153.972 10.1957C154.991 11.3815 155.5 12.9657 155.5 14.9482C155.5 16.0599 155.324 17.0604 154.972 17.9498C154.639 18.8206 154.157 19.5524 153.527 20.1453C152.916 20.7382 152.165 21.1922 151.276 21.5072C150.387 21.8222 149.386 21.9796 148.274 21.9796C147.774 21.9796 147.292 21.9518 146.829 21.8963C145.032 21.6369 143.624 20.9143 142.605 19.7285C141.586 18.5241 141.076 16.9307 141.076 14.9482C141.076 13.8365 141.243 12.8452 141.576 11.9744C141.91 11.085 142.392 10.3439 143.022 9.75101C143.652 9.13957 144.411 8.67637 145.301 8.36139C146.19 8.04641 147.181 7.88892 148.274 7.88892C148.534 7.88892 148.784 7.89818 149.025 7.91671C149.266 7.93524 149.506 7.96303 149.747 8.00009ZM150.72 21.1181C151.998 20.5808 152.721 19.6821 152.888 18.4222C153.073 17.1623 152.749 15.4948 151.915 13.4196C151.248 11.7335 150.507 10.4643 149.692 9.61204C149.692 9.61204 149.682 9.60278 149.664 9.58425C148.83 8.73195 147.885 8.37065 146.829 8.50035C146.459 8.55593 146.125 8.64858 145.829 8.77827C144.569 9.31559 143.846 10.2142 143.661 11.4741C143.475 12.7341 143.8 14.4016 144.634 16.4768C144.986 17.3291 145.338 18.0702 145.69 18.7001C146.06 19.3301 146.449 19.8582 146.857 20.2843C146.875 20.2843 146.885 20.2936 146.885 20.3121C147.737 21.1644 148.691 21.5257 149.747 21.396C149.896 21.3589 150.053 21.3219 150.22 21.2848C150.387 21.2478 150.553 21.1922 150.72 21.1181ZM173.353 19.1726C173.353 19.4876 173.427 19.747 173.575 19.9508C173.723 20.1546 173.899 20.2936 174.103 20.3677C174.325 20.4418 174.557 20.4603 174.798 20.4233C175.057 20.3677 175.298 20.2565 175.52 20.0898C175.28 20.4603 174.992 20.7846 174.659 21.0625C174.362 21.3034 173.992 21.5257 173.547 21.7295C173.102 21.9148 172.574 21.9889 171.963 21.9518C171.518 21.9333 171.12 21.8222 170.768 21.6183C170.434 21.4145 170.221 21.1181 170.129 20.729C168.906 21.5257 167.414 21.9241 165.654 21.9241C164.746 21.9241 163.903 21.8036 163.125 21.5628C162.347 21.3219 161.671 20.9791 161.096 20.5344C160.54 20.0712 160.096 19.5154 159.762 18.8669C159.447 18.2184 159.29 17.4865 159.29 16.6713V12.0022C159.29 11.6872 159.188 11.4093 158.984 11.1684C158.799 10.9275 158.586 10.7237 158.345 10.557C158.067 10.3532 157.752 10.1864 157.4 10.0567L162.569 7.86112L162.541 16.0043C162.541 17.1716 162.69 18.135 162.986 18.8947C163.282 19.6543 163.672 20.2473 164.153 20.6734C164.635 21.081 165.172 21.3312 165.765 21.4238C166.377 21.4979 166.979 21.4423 167.572 21.257C168.368 20.9976 168.98 20.5437 169.406 19.8952C169.851 19.2467 170.073 18.4963 170.073 17.644V9.83438C170.073 9.5194 169.971 9.24148 169.767 9.00061C169.582 8.74122 169.369 8.52814 169.128 8.36139C168.85 8.15758 168.535 7.99082 168.183 7.86112H175.242C174.89 7.99082 174.575 8.15758 174.298 8.36139C174.057 8.52814 173.834 8.74122 173.63 9.00061C173.445 9.24148 173.353 9.5194 173.353 9.83438V19.1726ZM189.924 7.86112L188.534 11.3074H186.283C185.597 11.3074 185.032 11.3815 184.588 11.5297C184.161 11.6594 183.819 11.891 183.559 12.2245C183.318 12.558 183.142 13.0027 183.031 13.5586C182.92 14.1144 182.846 14.8185 182.809 15.6708L182.781 16.0599V19.9786C182.781 20.2936 182.874 20.5808 183.059 20.8402C183.263 21.081 183.485 21.2848 183.726 21.4516C184.004 21.6554 184.319 21.8222 184.671 21.9518H177.612C177.964 21.8222 178.279 21.6554 178.557 21.4516C178.798 21.2848 179.011 21.081 179.196 20.8402C179.4 20.5808 179.502 20.2936 179.502 19.9786V10.6404C179.502 10.3254 179.428 10.0752 179.279 9.88997C179.131 9.68616 178.946 9.54719 178.723 9.47308C178.501 9.39897 178.26 9.38044 178.001 9.4175C177.76 9.45455 177.528 9.55646 177.306 9.72321C177.547 9.37118 177.834 9.0562 178.168 8.77827C178.464 8.53741 178.835 8.32433 179.279 8.13905C179.742 7.93524 180.28 7.85186 180.891 7.88892C181.41 7.90745 181.855 8.04641 182.225 8.3058C182.596 8.5652 182.781 8.96356 182.781 9.50087V12.697C182.874 12.6044 182.948 12.5024 183.003 12.3913C183.078 12.2801 183.161 12.1597 183.254 12.03C183.661 11.4185 184.041 10.8534 184.393 10.3346C184.745 9.81585 185.088 9.38044 185.421 9.0284C185.773 8.65784 186.125 8.37065 186.478 8.16684C186.848 7.96303 187.256 7.86112 187.7 7.86112H189.924Z" fill="#979797"/>
<path d="M11.4838 10.4458C12.2435 10.6126 12.9754 10.8164 13.6794 11.0573C14.402 11.2796 15.0413 11.5853 15.5971 11.9744C16.153 12.3635 16.5976 12.8545 16.9311 13.4474C17.2646 14.0403 17.4314 14.7815 17.4314 15.6708C17.4314 16.6528 17.2183 17.5329 16.7922 18.3111C16.366 19.0893 15.7731 19.747 15.0135 20.2843C14.2723 20.8217 13.3922 21.2385 12.3732 21.535C11.3541 21.8129 10.2517 21.9519 9.06591 21.9519C8.28772 21.9519 7.50027 21.9148 6.70355 21.8407C5.90684 21.7481 5.13792 21.6369 4.39679 21.5072C3.65566 21.3775 2.97011 21.2293 2.34015 21.0625C1.71019 20.8958 1.17288 20.729 0.728198 20.5623L1.14508 16.5324C1.33037 17.4032 1.71019 18.1536 2.28457 18.7836C2.87747 19.4135 3.55375 19.9323 4.31341 20.3399C5.07307 20.7475 5.86978 21.0533 6.70355 21.2571C7.55585 21.4609 8.3433 21.5628 9.06591 21.5628C9.84409 21.5628 10.5667 21.4609 11.2337 21.2571C11.9007 21.0533 12.4751 20.7568 12.9568 20.3677C13.4571 19.9786 13.8277 19.4969 14.0685 18.9225C14.3279 18.3296 14.4298 17.6441 14.3742 16.8659C14.3187 16.0506 13.9852 15.4392 13.3737 15.0316C12.7623 14.6054 12.0026 14.2812 11.0947 14.0589C10.1869 13.818 9.1956 13.6234 8.12097 13.4752C7.04633 13.3085 6.00875 13.0769 5.00822 12.7804C4.39679 12.5951 3.81315 12.382 3.2573 12.1412C2.71998 11.9003 2.24751 11.5946 1.83989 11.224C1.43227 10.8535 1.10803 10.4088 0.86716 9.89C0.626293 9.37121 0.505859 8.73198 0.505859 7.97232C0.505859 7.02738 0.728198 6.20288 1.17288 5.49881C1.61755 4.79473 2.22899 4.21109 3.00717 3.74789C3.78536 3.26615 4.69324 2.91412 5.73082 2.69178C6.7684 2.45091 7.8801 2.33048 9.06591 2.33048C10.5852 2.33048 11.9748 2.44165 13.2348 2.66399C14.4947 2.88632 15.5601 3.14572 16.4309 3.44217L15.9028 7.22193C15.3655 5.72114 14.4947 4.60019 13.2903 3.85906C12.1045 3.0994 10.6964 2.71957 9.06591 2.71957C8.41742 2.71957 7.76893 2.79368 7.12044 2.94191C6.47195 3.07161 5.88831 3.29394 5.36952 3.60892C4.85073 3.92391 4.43385 4.33153 4.11887 4.83179C3.80389 5.33205 3.6464 5.93422 3.6464 6.63829C3.6464 7.34236 3.878 7.89821 4.3412 8.30583C4.80441 8.71345 5.40658 9.04696 6.14771 9.30636C6.90737 9.54723 7.7504 9.75104 8.67681 9.91779C9.62175 10.0845 10.5574 10.2606 11.4838 10.4458ZM24.6348 19.9786C24.6348 20.2936 24.7275 20.5808 24.9128 20.8402C25.1166 21.0811 25.3482 21.2849 25.6076 21.4516C25.8855 21.6554 26.2097 21.8222 26.5803 21.9519H19.3265C19.6785 21.8222 20.0028 21.6554 20.2992 21.4516C20.5401 21.2849 20.7624 21.0811 20.9662 20.8402C21.1701 20.5808 21.272 20.2936 21.272 19.9786V4.4427C21.272 4.12772 21.1701 3.84979 20.9662 3.60892C20.7624 3.34953 20.5401 3.13645 20.2992 2.9697C20.0028 2.76589 19.6785 2.59914 19.3265 2.46944H26.5803C26.2097 2.59914 25.8855 2.76589 25.6076 2.9697C25.3482 3.13645 25.1166 3.34953 24.9128 3.60892C24.7275 3.84979 24.6348 4.12772 24.6348 4.4427V19.9786ZM36.1691 21.5628C37.7069 21.5628 39.0132 21.4053 40.0878 21.0903C41.181 20.7753 42.0796 20.4233 42.7837 20.0342C43.5989 19.5895 44.2752 19.08 44.8125 18.5056V21.9519H29.082C29.4341 21.8222 29.7583 21.6554 30.0548 21.4516C30.2956 21.2849 30.518 21.0811 30.7218 20.8402C30.9256 20.5808 31.0275 20.2936 31.0275 19.9786V4.4427C31.0275 4.12772 30.9256 3.84979 30.7218 3.60892C30.518 3.34953 30.2956 3.13645 30.0548 2.9697C29.7583 2.76589 29.4341 2.59914 29.082 2.46944H43.9232V5.91569C43.3117 5.35984 42.5613 4.85032 41.672 4.38711C40.9123 4.01655 39.9674 3.67377 38.8372 3.35879C37.7069 3.02529 36.3729 2.85853 34.8351 2.85853H34.3904V9.66766H39.532L39.0039 12.836C38.7445 12.3172 38.411 11.854 38.0034 11.4464C37.6514 11.0943 37.1881 10.7794 36.6138 10.5014C36.0579 10.205 35.3724 10.0568 34.5571 10.0568H34.3904V21.5628H36.1691ZM68.3166 19.9786C68.3166 20.2936 68.4092 20.5808 68.5945 20.8402C68.7983 21.0811 69.0299 21.2849 69.2893 21.4516C69.5673 21.6554 69.8915 21.8222 70.2621 21.9519H63.0361C63.3881 21.8222 63.7123 21.6554 64.0088 21.4516C64.2497 21.2849 64.472 21.0811 64.6758 20.8402C64.8796 20.5808 64.9815 20.2936 64.9815 19.9786V3.41438L59.034 17.255L61.3685 21.9519H57.6999L49.6401 5.97128V19.9786C49.6401 20.2936 49.7328 20.5808 49.9181 20.8402C50.1219 21.0811 50.3535 21.2849 50.6129 21.4516C50.8908 21.6554 51.215 21.8222 51.5856 21.9519H47.3056C47.6576 21.8222 47.9819 21.6554 48.2783 21.4516C48.5192 21.2849 48.7415 21.0811 48.9453 20.8402C49.1491 20.5808 49.251 20.2936 49.251 19.9786V5.1653L47.917 2.46944H51.7246L58.8116 16.7825L64.9537 2.46944H65.3706H70.2621C69.8915 2.59914 69.5673 2.76589 69.2893 2.9697C69.0299 3.13645 68.7983 3.34953 68.5945 3.60892C68.4092 3.84979 68.3166 4.12772 68.3166 4.4427V19.9786ZM80.4742 2.46944C83.1423 2.46944 85.1711 2.98823 86.5608 4.02581C87.9504 5.06339 88.6452 6.71241 88.6452 8.97285C88.6452 11.2333 87.9504 12.8823 86.5608 13.9199C85.1711 14.9575 83.1423 15.4763 80.4742 15.4763H78.0563V19.9786C78.0563 20.2936 78.1489 20.5808 78.3342 20.8402C78.538 21.0811 78.7696 21.2849 79.029 21.4516C79.307 21.6554 79.6312 21.8222 80.0018 21.9519H72.7757C73.1278 21.8222 73.452 21.6554 73.7485 21.4516C73.9893 21.2849 74.2117 21.0811 74.4155 20.8402C74.6193 20.5808 74.7212 20.2936 74.7212 19.9786V4.4427C74.7212 4.12772 74.6193 3.84979 74.4155 3.60892C74.2117 3.34953 73.9893 3.13645 73.7485 2.9697C73.452 2.76589 73.1278 2.59914 72.7757 2.46944H80.4742ZM85.3101 8.91726C85.3101 7.8241 85.1804 6.89769 84.921 6.13803C84.6801 5.35984 84.3188 4.72988 83.8371 4.24815C83.3739 3.76641 82.7995 3.41438 82.114 3.19204C81.4284 2.9697 80.641 2.85853 79.7516 2.85853H78.0563V15.0872H79.7516C80.641 15.0872 81.4284 14.976 82.114 14.7537C82.7995 14.5313 83.3739 14.1793 83.8371 13.6976C84.3188 13.2158 84.6801 12.5951 84.921 11.8355C85.1804 11.0573 85.3101 10.1216 85.3101 9.02843V8.97285V8.91726ZM107.49 21.9519C106.489 22.063 105.674 22.0353 105.044 21.8685C104.414 21.6832 103.914 21.4146 103.543 21.0625C103.173 20.7105 102.895 20.2936 102.71 19.8119C102.524 19.3116 102.385 18.8021 102.293 18.2833C102.2 17.746 102.117 17.2272 102.043 16.7269C101.969 16.2081 101.857 15.7449 101.709 15.3373C101.561 14.9297 101.339 14.6054 101.042 14.3646C100.746 14.1052 100.319 13.9755 99.7636 13.9755H95.8727V19.9786C95.8727 20.2936 95.9654 20.5808 96.1506 20.8402C96.3545 21.0811 96.5861 21.2849 96.8455 21.4516C97.1234 21.6554 97.4476 21.8222 97.8182 21.9519H90.5922C90.9442 21.8222 91.2685 21.6554 91.5649 21.4516C91.8058 21.2849 92.0281 21.0811 92.2319 20.8402C92.4357 20.5808 92.5376 20.2936 92.5376 19.9786V4.4427C92.5376 4.12772 92.4357 3.84979 92.2319 3.60892C92.0281 3.34953 91.8058 3.13645 91.5649 2.9697C91.2685 2.76589 90.9442 2.59914 90.5922 2.46944H97.8182C100.468 2.46944 102.524 2.93264 103.988 3.85906C105.47 4.76694 106.211 6.22141 106.211 8.22246C106.211 9.74177 105.776 10.9832 104.905 11.9466C104.053 12.8916 102.812 13.503 101.181 13.7809C102.07 13.7809 102.784 13.9755 103.321 14.3646C103.858 14.7351 104.285 15.2076 104.6 15.782C104.914 16.3378 105.155 16.9585 105.322 17.6441C105.489 18.3111 105.656 18.941 105.822 19.5339C105.989 20.1083 106.193 20.5993 106.434 21.0069C106.675 21.4146 107.027 21.6462 107.49 21.7017V21.9519ZM97.3457 13.5864C99.1059 13.5864 100.468 13.188 101.431 12.3913C102.395 11.5946 102.876 10.2235 102.876 8.27804V8.22246V8.16687C102.876 6.22141 102.395 4.85032 101.431 4.0536C100.468 3.25689 99.1059 2.85853 97.3457 2.85853H95.8727V13.5864H97.3457ZM117.07 21.5628C118.608 21.5628 119.914 21.4053 120.989 21.0903C122.082 20.7753 122.98 20.4233 123.684 20.0342C124.5 19.5895 125.176 19.08 125.713 18.5056V21.9519H109.983C110.335 21.8222 110.659 21.6554 110.955 21.4516C111.196 21.2849 111.419 21.0811 111.623 20.8402C111.826 20.5808 111.928 20.2936 111.928 19.9786V4.4427C111.928 4.12772 111.826 3.84979 111.623 3.60892C111.419 3.34953 111.196 3.13645 110.955 2.9697C110.659 2.76589 110.335 2.59914 109.983 2.46944H124.824V5.91569C124.212 5.35984 123.462 4.85032 122.573 4.38711C121.813 4.01655 120.868 3.67377 119.738 3.35879C118.608 3.02529 117.274 2.85853 115.736 2.85853H115.291V9.66766H120.433L119.905 12.836C119.645 12.3172 119.312 11.854 118.904 11.4464C118.552 11.0943 118.089 10.7794 117.514 10.5014C116.959 10.205 116.273 10.0568 115.458 10.0568H115.291V21.5628H117.07Z" fill="black"/>
</g>
<defs>
<clipPath id="clip0_2206_255">
<rect width="191.883" height="22.98" fill="white" transform="translate(0 0.371048)"/>
</clipPath>
</defs>
</svg>
