<svg width="193" height="30" viewBox="0 0 193 30" fill="none" xmlns="http://www.w3.org/2000/svg">
<g clip-path="url(#clip0_38_462)">
<rect width="193" height="30" fill="white"/>
<path d="M10.0395 27.6885C8.43794 27.6885 6.99884 27.41 5.72222 26.8529C4.46881 26.2727 3.48233 25.4835 2.76277 24.4854C2.04322 23.4641 1.67184 22.2919 1.64863 20.9689H5.02588C5.14194 22.1062 5.60616 23.0695 6.41856 23.8587C7.25417 24.6246 8.46116 25.0076 10.0395 25.0076C11.5483 25.0076 12.732 24.6363 13.5909 23.8935C14.4729 23.1275 14.9139 22.1526 14.9139 20.9689C14.9139 20.0404 14.6586 19.286 14.1479 18.7058C13.6373 18.1255 12.999 17.6845 12.233 17.3827C11.467 17.081 10.4341 16.756 9.13428 16.4078C7.5327 15.99 6.24447 15.5722 5.2696 15.1544C4.31793 14.7366 3.49393 14.0867 2.79759 13.2047C2.12446 12.2994 1.7879 11.0924 1.7879 9.58371C1.7879 8.26066 2.12446 7.08849 2.79759 6.06719C3.47072 5.04589 4.41078 4.25671 5.61777 3.69964C6.84797 3.14256 8.25225 2.86403 9.83062 2.86403C12.1053 2.86403 13.9622 3.43271 15.4013 4.57006C16.8637 5.70742 17.6877 7.21615 17.8733 9.09627H14.3916C14.2756 8.16782 13.7882 7.35542 12.9293 6.65908C12.0705 5.93953 10.9332 5.57975 9.51727 5.57975C8.19423 5.57975 7.1149 5.92792 6.27929 6.62426C5.44368 7.29739 5.02588 8.24906 5.02588 9.47926C5.02588 10.3613 5.2696 11.0808 5.75704 11.6379C6.26769 12.195 6.88279 12.6244 7.60234 12.9261C8.3451 13.2047 9.378 13.5296 10.701 13.901C12.3026 14.342 13.5909 14.783 14.5657 15.2241C15.5406 15.6419 16.3762 16.3034 17.0726 17.2086C17.7689 18.0907 18.1171 19.2976 18.1171 20.8296C18.1171 22.0134 17.8037 23.1275 17.177 24.172C16.5503 25.2165 15.6218 26.0638 14.3916 26.7137C13.1614 27.3636 11.7107 27.6885 10.0395 27.6885ZM25.9479 3.17738V27.4448H22.7796V3.17738H25.9479ZM34.5161 5.75384V13.8662H43.3597V16.4775H34.5161V24.8335H44.4042V27.4448H31.3478V3.14256H44.4042V5.75384H34.5161ZM73.8139 3.35147V27.4448H70.6456V9.47926L62.6377 27.4448H60.4094L52.3666 9.44444V27.4448H49.1983V3.35147H52.6104L61.5235 23.2668L70.4367 3.35147H73.8139ZM95.4119 10.28C95.4119 12.2994 94.7155 13.9823 93.3229 15.3285C91.9534 16.6516 89.8528 17.3131 87.021 17.3131H82.3555V27.4448H79.1872V3.17738H87.021C89.7599 3.17738 91.8373 3.8389 93.2532 5.16195C94.6923 6.485 95.4119 8.19103 95.4119 10.28ZM87.021 14.7018C88.785 14.7018 90.0849 14.3188 90.9205 13.5528C91.7561 12.7869 92.1739 11.6959 92.1739 10.28C92.1739 7.28579 90.4563 5.78866 87.021 5.78866H82.3555V14.7018H87.021ZM112.128 27.4448L106.348 17.522H102.518V27.4448H99.3497V3.17738H107.184C109.017 3.17738 110.561 3.49073 111.814 4.11744C113.091 4.74415 114.043 5.59136 114.669 6.65908C115.296 7.7268 115.609 8.9454 115.609 10.3149C115.609 11.9861 115.122 13.46 114.147 14.7366C113.195 16.0132 111.756 16.8605 109.83 17.2783L115.923 27.4448H112.128ZM102.518 14.9803H107.184C108.901 14.9803 110.189 14.5625 111.048 13.7269C111.907 12.8681 112.336 11.7308 112.336 10.3149C112.336 8.87576 111.907 7.76162 111.048 6.97243C110.213 6.18325 108.924 5.78866 107.184 5.78866H102.518V14.9803ZM123.701 5.75384V13.8662H132.544V16.4775H123.701V24.8335H133.589V27.4448H120.532V3.14256H133.589V5.75384H123.701Z" fill="black"/>
<path d="M140.663 13.3149V23.1507C140.663 24.1179 140.847 24.7852 141.215 25.1527C141.582 25.5202 142.23 25.704 143.159 25.704H145.015V27.4448H142.839C141.408 27.4448 140.344 27.116 139.648 26.4583C138.952 25.7813 138.603 24.6788 138.603 23.1507V13.3149H136.398V11.6031H138.603V7.62815H140.663V11.6031H145.015V13.3149H140.663ZM155.299 27.6769C153.81 27.6769 152.466 27.3481 151.266 26.6905C150.087 26.0135 149.148 25.0657 148.452 23.8471C147.775 22.6091 147.437 21.1681 147.437 19.524C147.437 17.8798 147.785 16.4485 148.481 15.2299C149.177 13.9919 150.125 13.0441 151.324 12.3865C152.524 11.7095 153.868 11.371 155.357 11.371C156.847 11.371 158.191 11.7095 159.39 12.3865C160.609 13.0441 161.557 13.9919 162.234 15.2299C162.93 16.4485 163.278 17.8798 163.278 19.524C163.278 21.1488 162.93 22.5801 162.234 23.8181C161.537 25.056 160.58 26.0135 159.361 26.6905C158.143 27.3481 156.789 27.6769 155.299 27.6769ZM155.299 25.9071C156.344 25.9071 157.311 25.675 158.201 25.2107C159.091 24.7272 159.806 24.0115 160.348 23.0637C160.909 22.0965 161.189 20.9166 161.189 19.524C161.189 18.1313 160.918 16.961 160.377 16.0132C159.835 15.0461 159.12 14.3304 158.23 13.8662C157.34 13.3826 156.373 13.1408 155.328 13.1408C154.284 13.1408 153.317 13.3826 152.427 13.8662C151.537 14.3304 150.822 15.0461 150.28 16.0132C149.758 16.961 149.497 18.1313 149.497 19.524C149.497 20.9166 149.758 22.0965 150.28 23.0637C150.822 24.0115 151.528 24.7272 152.398 25.2107C153.288 25.675 154.255 25.9071 155.299 25.9071ZM180.704 11.6031V27.4448H178.673V24.6595C178.209 25.6459 177.493 26.4003 176.526 26.9226C175.559 27.4448 174.476 27.706 173.277 27.706C171.381 27.706 169.834 27.1257 168.634 25.9651C167.435 24.7852 166.835 23.083 166.835 20.8586V11.6031H168.837V20.6265C168.837 22.348 169.263 23.6633 170.114 24.5724C170.985 25.4815 172.164 25.9361 173.654 25.9361C175.182 25.9361 176.4 25.4525 177.31 24.4854C178.219 23.5182 178.673 22.0965 178.673 20.2203V11.6031H180.704ZM187.372 14.4175C187.817 13.431 188.494 12.6669 189.403 12.1253C190.332 11.5838 191.463 11.313 192.798 11.313V13.431H192.246C190.776 13.431 189.596 13.8275 188.707 14.6206C187.817 15.4136 187.372 16.7386 187.372 18.5955V27.4448H185.341V11.6031H187.372V14.4175Z" fill="#949494"/>
</g>
<defs>
<clipPath id="clip0_38_462">
<rect width="193" height="30" fill="white"/>
</clipPath>
</defs>
</svg>
